<svg version="1.1" id="Layer_1" xmlns="http://www.w3.org/2000/svg" xmlns:xlink="http://www.w3.org/1999/xlink" x="0px" y="0px" viewBox="0 0 24 24" style="enable-background:new 0 0 24 24;" xml:space="preserve" fill="currentColor">
<g>
	<path d="M11.993,14.251c-0.365,0-0.729-0.088-1.052-0.255L0.732,8.714C0.478,8.584,0.275,8.38,0.144,8.125&#10;&#9;&#9;c-0.344-0.67-0.079-1.494,0.59-1.838l10.206-5.28c0.324-0.167,0.688-0.255,1.052-0.255s0.729,0.088,1.052,0.255l10.21,5.281&#10;&#9;&#9;c0.252,0.131,0.454,0.333,0.585,0.585c0.346,0.67,0.083,1.495-0.585,1.842l-10.209,5.281&#10;&#9;&#9;C12.723,14.162,12.359,14.251,11.993,14.251z M11.63,12.663c0.112,0.058,0.237,0.088,0.364,0.088c0.126,0,0.252-0.031,0.363-0.088&#10;&#9;&#9;l9.979-5.162l-9.979-5.162c-0.111-0.058-0.237-0.088-0.363-0.088s-0.252,0.03-0.364,0.088L1.652,7.501L11.63,12.663z"/>
	<path d="M11.996,18.751c-0.366,0-0.73-0.088-1.055-0.256L0.433,13.426c-0.18-0.087-0.316-0.239-0.382-0.428&#10;&#9;&#9;c-0.066-0.189-0.054-0.393,0.033-0.573c0.124-0.258,0.389-0.424,0.675-0.424c0.114,0,0.224,0.025,0.326,0.075l10.527,5.078&#10;&#9;&#9;c0.126,0.064,0.256,0.096,0.385,0.096c0.125,0,0.25-0.03,0.361-0.088l10.576-5.087c0.103-0.049,0.212-0.074,0.325-0.074&#10;&#9;&#9;c0.287,0,0.552,0.167,0.676,0.425c0.179,0.372,0.022,0.821-0.351,1l-10.557,5.078C12.718,18.664,12.359,18.751,11.996,18.751z"/>
	<path d="M11.996,23.251c-0.366,0-0.73-0.088-1.055-0.256L0.433,17.926c-0.18-0.087-0.316-0.239-0.382-0.428&#10;&#9;&#9;c-0.066-0.189-0.054-0.393,0.033-0.573c0.124-0.258,0.389-0.424,0.676-0.424c0.114,0,0.223,0.025,0.326,0.075l10.527,5.078&#10;&#9;&#9;c0.126,0.065,0.256,0.096,0.385,0.096c0.125,0,0.25-0.03,0.361-0.087l10.576-5.087c0.103-0.049,0.212-0.074,0.325-0.074&#10;&#9;&#9;c0.287,0,0.552,0.167,0.676,0.425c0.179,0.372,0.022,0.821-0.351,1l-10.557,5.078C12.718,23.164,12.359,23.251,11.996,23.251z"/>
</g>
</svg>