<svg xmlns="http://www.w3.org/2000/svg" fill="none" viewBox="0 0 48 48">
<g transform="matrix(2,0,0,2,0,0)"><path stroke="currentColor" stroke-linecap="round" stroke-linejoin="round" stroke-width="1.5" d="M21.746 15.75H2.246L1.2 21.479C1.16033 21.695 1.16856 21.917 1.2241 22.1294C1.27964 22.3419 1.38114 22.5395 1.52144 22.7084C1.66173 22.8773 1.8374 23.0134 2.03604 23.107C2.23467 23.2005 2.45143 23.2494 2.671 23.25H21.322C21.5422 23.2504 21.7597 23.2023 21.9592 23.1092C22.1587 23.0161 22.3353 22.8801 22.4763 22.7111C22.6174 22.5421 22.7195 22.3441 22.7755 22.1311C22.8314 21.9182 22.8398 21.6955 22.8 21.479L21.746 15.75Z"/><path stroke="currentColor" stroke-linecap="round" stroke-linejoin="round" stroke-width="1.5" d="M5.246 1.5C5.246 1.40117 5.26553 1.30331 5.30347 1.21206C5.34141 1.1208 5.39702 1.03794 5.46708 0.968246C5.53715 0.89855 5.62031 0.843389 5.71176 0.805934C5.80322 0.768479 5.90117 0.749468 6 0.749995H15L18.75 4.5V11.25H5.246V1.5Z"/><path stroke="currentColor" stroke-linecap="round" stroke-linejoin="round" stroke-width="1.5" d="M21.746 12.75H23.246"/><path stroke="currentColor" stroke-linecap="round" stroke-linejoin="round" stroke-width="1.5" d="M0.75 12.75H2.25"/><path stroke="currentColor" stroke-width="1.5" d="M7.125 19.875C6.91789 19.875 6.75 19.7071 6.75 19.5C6.75 19.2929 6.91789 19.125 7.125 19.125"/><path stroke="currentColor" stroke-width="1.5" d="M7.125 19.875C7.33211 19.875 7.5 19.7071 7.5 19.5C7.5 19.2929 7.33211 19.125 7.125 19.125"/><path stroke="currentColor" stroke-width="1.5" d="M12 19.875C11.7929 19.875 11.625 19.7071 11.625 19.5C11.625 19.2929 11.7929 19.125 12 19.125"/><path stroke="currentColor" stroke-width="1.5" d="M12 19.875C12.2071 19.875 12.375 19.7071 12.375 19.5C12.375 19.2929 12.2071 19.125 12 19.125"/><path stroke="currentColor" stroke-width="1.5" d="M16.875 19.875C16.6679 19.875 16.5 19.7071 16.5 19.5C16.5 19.2929 16.6679 19.125 16.875 19.125"/><path stroke="currentColor" stroke-width="1.5" d="M16.875 19.875C17.0821 19.875 17.25 19.7071 17.25 19.5C17.25 19.2929 17.0821 19.125 16.875 19.125"/><path stroke="currentColor" stroke-linecap="round" stroke-linejoin="round" stroke-width="1.5" d="M2.246 15.75V12.75C2.246 12.3522 2.40404 11.9706 2.68534 11.6893C2.96665 11.408 3.34818 11.25 3.746 11.25H20.246C20.6438 11.25 21.0254 11.408 21.3067 11.6893C21.588 11.9706 21.746 12.3522 21.746 12.75V15.75"/><path stroke="currentColor" stroke-linecap="round" stroke-linejoin="round" stroke-width="1.5" d="M8.246 8.25H14.996"/><path stroke="currentColor" stroke-linecap="round" stroke-linejoin="round" stroke-width="1.5" d="M8.246 4.5H11.996"/></g></svg>