<svg viewBox="0 0 48 48" xmlns="http://www.w3.org/2000/svg"><g transform="matrix(2,0,0,2,0,0)"><path d="M3.75,14v7.5A1.5,1.5,0,0,0,5.25,23h13.5a1.5,1.5,0,0,0,1.5-1.5V14" fill="none" stroke="currentColor" stroke-linecap="round" stroke-linejoin="round" stroke-width="1.5"/><path d="M.75,12.629,10.939,2.439a1.5,1.5,0,0,1,2.122,0L23.25,12.629" fill="none" stroke="currentColor" stroke-linecap="round" stroke-linejoin="round" stroke-width="1.5"/><path d="M16.5 5.879L16.5 3.5 20.25 3.5 20.25 9.629" fill="none" stroke="currentColor" stroke-linecap="round" stroke-linejoin="round" stroke-width="1.5"/><path d="M15.93,11.845a1.9,1.9,0,0,0-2.751,0L12,13.064l-1.179-1.219a1.9,1.9,0,0,0-2.751,0,2.06,2.06,0,0,0,0,2.845l3.511,3.631a.579.579,0,0,0,.838,0L15.93,14.69A2.06,2.06,0,0,0,15.93,11.845Z" fill="none" stroke="currentColor" stroke-linecap="round" stroke-linejoin="round" stroke-width="1.5"/></g></svg>