<svg viewBox="0 0 48 48" xmlns="http://www.w3.org/2000/svg"><g transform="matrix(2,0,0,2,0,0)"><path d="M21,23.25H5.25A2.25,2.25,0,0,1,3,21" fill="none" stroke="currentColor" stroke-linecap="round" stroke-linejoin="round" stroke-width="1.5"/><path d="M12,2.25H6a3,3,0,0,0-3,3V21a2.25,2.25,0,0,1,2.25-2.25h15A.75.75,0,0,0,21,18V3a.75.75,0,0,0-.75-.75H18" fill="none" stroke="currentColor" stroke-linecap="round" stroke-linejoin="round" stroke-width="1.5"/><path d="M19.5 23.25L19.5 18.75" fill="none" stroke="currentColor" stroke-linecap="round" stroke-linejoin="round" stroke-width="1.5"/><path d="M18,12.75l-3-3-3,3V2.25A1.5,1.5,0,0,1,13.5.75h3A1.5,1.5,0,0,1,18,2.25Z" fill="none" stroke="currentColor" stroke-linecap="round" stroke-linejoin="round" stroke-width="1.5"/></g></svg>